<?xml version="1.0" encoding="utf-8"?>
<!-- Generator: Adobe Illustrator 28.0.0, SVG Export Plug-In . SVG Version: 6.00 Build 0)  -->
<svg version="1.1" id="Layer_1" xmlns="http://www.w3.org/2000/svg" xmlns:xlink="http://www.w3.org/1999/xlink" x="0px" y="0px"
	 viewBox="0 0 38 32" style="enable-background:new 0 0 38 32;" xml:space="preserve">
<style type="text/css">
	.st0{fill:#80BC00;}
	.st1{fill:#1E6C53;}
</style>
<path class="st0" d="M0.5,27.4V4.6h7.3v2.9C9.3,5.6,12.2,4,15,4v7.1c-0.4-0.1-1-0.2-1.8-0.2c-1.9,0-4.4,0.8-5.3,2.1v14.5H0.5z"/>
<path class="st1" d="M28.2,4c4.9,0,8,2.2,9.4,4.2l-4.7,4.4c-0.9-1.3-2.4-2.2-4.3-2.2c-3,0-5.3,2.1-5.3,5.5c0,3.5,2.3,5.6,5.3,5.6
	c1.9,0,3.4-0.9,4.3-2.2l4.7,4.4c-1.4,2-4.4,4.2-9.4,4.2c-7.1,0-12.5-4.8-12.5-12C15.7,8.8,21,4,28.2,4z"/>
</svg>
